<?xml version="1.0" standalone="no"?>
<!DOCTYPE svg PUBLIC "-//W3C//DTD SVG 20010904//EN"
 "http://www.w3.org/TR/2001/REC-SVG-20010904/DTD/svg10.dtd">
<svg version="1.0" xmlns="http://www.w3.org/2000/svg"
  viewBox="0 0 512.000000 512.000000"
 preserveAspectRatio="xMidYMid meet">

<g transform="translate(0.000000,512.000000) scale(0.100000,-0.100000)"
 >
<path d="M2436 5104 c-125 -27 -179 -62 -441 -280 l-174 -144 -471 0 c-511 0
-515 0 -558 -55 -22 -27 -22 -33 -22 -424 l-1 -396 -315 -260 c-174 -143 -320
-268 -325 -277 -14 -27 -12 -2757 3 -2817 18 -75 71 -182 121 -243 60 -72 178
-151 270 -180 l72 -23 1965 0 1965 0 70 22 c146 46 276 159 344 297 22 45 44
105 50 133 7 36 11 492 11 1425 1 1301 0 1374 -17 1395 -10 12 -158 139 -330
283 l-312 260 -3 394 c-3 378 -4 395 -23 416 -44 49 -53 50 -550 50 l-466 0
-177 148 c-267 224 -305 247 -447 277 -90 18 -148 18 -239 -1z m194 -229 c62
-9 114 -38 214 -120 l85 -70 -184 -3 c-102 -1 -268 -1 -370 0 l-184 3 79 65
c44 36 101 77 128 92 45 26 139 49 172 43 8 -2 35 -6 60 -10z m1469 -1272 l0
-848 -659 -490 c-363 -269 -689 -506 -726 -525 -62 -32 -74 -35 -154 -35 -80
0 -92 3 -153 35 -37 19 -368 260 -737 535 l-670 499 0 832 c0 457 3 834 7 837
3 4 701 7 1550 7 l1543 0 -1 -847z m439 -252 c89 -74 162 -137 162 -140 0 -4
-66 -56 -147 -116 -82 -60 -163 -120 -180 -133 l-33 -24 0 286 c0 275 1 287
18 274 10 -7 91 -73 180 -147z m-3770 -261 l-3 -141 -172 128 c-95 70 -171
132 -170 136 1 4 79 71 172 148 l170 140 3 -135 c1 -74 1 -198 0 -276z m555
-845 c586 -439 923 -684 974 -710 96 -49 160 -65 265 -65 98 0 182 21 268 66
36 19 475 341 975 715 501 374 922 689 938 700 l27 21 -2 -1239 -3 -1238 -26
-55 c-34 -73 -99 -136 -179 -174 l-65 -31 -1885 -3 c-1280 -2 -1907 1 -1953 8
-110 17 -193 68 -251 157 -58 87 -56 43 -56 1361 l0 1214 38 -29 c21 -15 442
-329 935 -698z"/>
<path d="M1784 3494 c-57 -28 -79 -96 -49 -154 31 -61 25 -60 418 -60 l359 0
34 34 c28 28 34 41 34 79 0 49 -28 89 -75 107 -16 6 -163 10 -358 10 -275 0
-337 -3 -363 -16z"/>
<path d="M1772 2904 c-49 -34 -65 -104 -35 -155 36 -61 10 -59 823 -59 817 0
793 -2 825 61 26 49 19 97 -19 135 l-34 34 -769 0 c-680 0 -771 -2 -791 -16z"/>
</g>
</svg>
