<?xml version="1.0" standalone="no"?>
<!DOCTYPE svg PUBLIC "-//W3C//DTD SVG 20010904//EN"
 "http://www.w3.org/TR/2001/REC-SVG-20010904/DTD/svg10.dtd">
<svg version="1.0" xmlns="http://www.w3.org/2000/svg"
  viewBox="0 0 512.000000 512.000000"
 preserveAspectRatio="xMidYMid meet">

<g transform="translate(0.000000,512.000000) scale(0.100000,-0.100000)"
  >
<path d="M2475 5114 c-115 -30 -653 -218 -1094 -384 -692 -259 -724 -274 -803
-351 -25 -26 -58 -70 -73 -98 -46 -92 -105 -415 -142 -781 -22 -225 -26 -1004
-5 -1200 31 -288 79 -468 177 -658 116 -228 237 -384 490 -637 345 -346 805
-684 1240 -911 241 -126 350 -126 590 0 452 237 896 564 1250 920 245 246 365
404 480 628 97 189 143 360 177 659 21 182 17 977 -5 1199 -39 391 -96 693
-149 791 -37 70 -93 123 -177 167 -124 67 -1002 395 -1546 579 -190 64 -232
74 -305 78 -47 2 -94 2 -105 -1z m204 -1289 c152 -36 298 -151 366 -288 112
-229 74 -468 -105 -648 -139 -141 -314 -194 -505 -154 -307 64 -501 370 -430
674 48 204 209 366 411 415 78 19 184 19 263 1z m465 -1305 c187 -19 307 -127
336 -301 13 -81 13 -253 0 -344 -21 -144 -122 -278 -246 -325 -126 -47 -466
-76 -774 -67 -332 10 -525 37 -612 84 -107 58 -187 172 -209 298 -16 95 -7
366 15 425 38 103 127 185 235 217 36 10 124 18 260 23 244 10 869 3 995 -10z"/>
</g>
</svg>
