<?xml version="1.0" standalone="no"?>
<!DOCTYPE svg PUBLIC "-//W3C//DTD SVG 20010904//EN"
 "http://www.w3.org/TR/2001/REC-SVG-20010904/DTD/svg10.dtd">
<svg version="1.0" xmlns="http://www.w3.org/2000/svg"
  viewBox="0 0 512.000000 512.000000"
 >

<g transform="translate(0.000000,512.000000) scale(0.100000,-0.100000)"
>
<path d="M2421 4354 c-131 -35 -266 -141 -328 -260 -190 -358 65 -784 469
-784 143 0 271 53 373 155 103 103 155 229 155 375 0 242 -163 454 -395 515
-73 19 -202 18 -274 -1z m274 -225 c63 -30 123 -90 155 -154 35 -71 35 -197 0
-270 -31 -64 -91 -124 -155 -155 -73 -35 -199 -35 -270 0 -64 31 -124 91 -155
155 -35 71 -35 197 0 270 42 86 123 152 215 176 54 14 156 3 210 -22z"/>
<path d="M1036 3715 c-78 -22 -169 -72 -225 -126 -253 -241 -217 -640 74 -835
81 -54 156 -77 270 -82 88 -4 109 -1 178 22 130 44 215 109 289 221 110 168
110 402 0 570 -105 159 -264 246 -449 244 -48 0 -110 -7 -137 -14z m278 -229
c60 -29 113 -82 148 -148 19 -36 23 -58 23 -138 0 -80 -4 -102 -23 -138 -35
-66 -88 -119 -150 -149 -76 -38 -191 -40 -267 -5 -135 62 -213 210 -185 350
15 72 31 103 83 159 95 103 245 131 371 69z"/>
<path d="M3782 3705 c-126 -44 -212 -110 -283 -219 -111 -168 -111 -402 -1
-572 73 -112 191 -196 325 -230 98 -26 232 -15 327 24 397 167 443 709 81 942
-83 53 -154 73 -271 77 -92 3 -114 0 -178 -22z m293 -214 c131 -58 214 -211
186 -341 -17 -78 -36 -115 -86 -169 -64 -69 -128 -95 -230 -96 -68 0 -89 4
-137 28 -105 51 -168 146 -176 262 -5 85 8 138 51 201 88 131 249 178 392 115z"/>
<path d="M2000 3076 c-66 -19 -114 -41 -162 -74 -154 -106 -237 -272 -238
-469 l0 -83 -463 0 c-378 0 -473 -3 -520 -15 -177 -46 -321 -181 -379 -354
-22 -64 -22 -80 -26 -641 -2 -397 0 -586 8 -612 6 -20 22 -46 37 -57 25 -21
33 -21 919 -21 l893 0 28 24 28 24 5 294 5 293 425 0 425 0 5 -293 5 -294 28
-24 28 -24 893 0 c886 0 894 0 919 21 15 11 31 37 37 57 8 26 10 215 8 612 -4
561 -4 577 -26 641 -58 173 -202 308 -379 354 -47 12 -142 15 -520 15 l-463 0
0 83 c-1 246 -135 446 -355 530 -59 22 -67 22 -590 24 -406 1 -541 -1 -575
-11z m1118 -225 c65 -29 144 -113 167 -178 10 -28 19 -92 22 -155 l5 -106 -38
-20 c-106 -54 -211 -176 -256 -297 -20 -54 -23 -82 -26 -277 l-3 -218 -429 0
-429 0 -3 218 c-3 195 -6 223 -26 277 -44 117 -137 230 -239 287 l-53 30 0 78
c0 87 14 169 37 214 21 41 92 115 127 133 78 41 94 42 601 40 l490 -2 53 -24z
m-1393 -639 c65 -30 138 -102 167 -166 23 -51 23 -52 26 -568 l3 -518 -746 0
-745 0 0 508 c0 314 4 521 10 544 14 49 66 125 112 161 20 16 61 38 90 48 49
17 89 19 543 16 487 -2 490 -2 540 -25z m2787 -5 c62 -30 115 -83 150 -149
l23 -43 3 -527 3 -528 -746 0 -746 0 3 518 c3 515 3 517 26 567 25 55 91 128
137 152 77 41 93 42 600 40 l490 -2 57 -28z"/>
</g>
</svg>
